<?xml version="1.0" encoding="utf-8"?>

<!-- License Agreement at http://iconmonstr.com/license/ -->

<!DOCTYPE svg PUBLIC "-//W3C//DTD SVG 1.1//EN" "http://www.w3.org/Graphics/SVG/1.1/DTD/svg11.dtd">
<svg version="1.1" xmlns="http://www.w3.org/2000/svg" xmlns:xlink="http://www.w3.org/1999/xlink" x="0px" y="0px"
	 width="512px" height="512px" viewBox="0 0 512 512" enable-background="new 0 0 512 512" xml:space="preserve">
<path id="vk-4-icon" d="M256,50C142.229,50,50,142.229,50,256s92.229,206,206,206c113.77,0,206-92.229,206-206S369.77,50,256,50z
	 M373.606,337.158c-7.215,0-27.177,0-34.61,0c-19.537,0-22.866-11.143-38.966-27.24c-14.543-14.547-22.603-3.391-22.267,17.344
	c0.087,5.5-2.615,9.896-9.197,9.896c-20.5,0-49.963,2.889-79.771-29.287c-32.206-34.764-59.445-95.698-61.815-102.002
	c-2.367-6.303,0.959-9.411,7.747-9.411c7.571,0,30.101,0,35.204,0c9.309,0,10.104,4.778,12.704,10.713
	c10.812,24.661,36.743,74.192,43.643,46.555c3.963-15.873,5.591-49.683-11.395-52.85c-12.046-2.244,17.439-17.777,51.465-9.88
	c12.462,2.893,12.504,8.494,12.339,16.647c-0.623,30.873-4.344,48.685,3.783,53.939c7.771,5.02,28.227-27.861,38.98-53.236
	c2.967-7.008,3.57-11.888,11.924-11.888c41.795,0,38.645,0,43.059,0c22.544,0-2.934,32.583-22.433,57.87
	c-15.705,20.376-14.85,20.776,3.388,37.704C376.571,309.834,400.834,337.158,373.606,337.158z"/>
</svg>
